PathFileType	4	(X/Y/Z)	c:/Users/goper/Files/vsCode/490R/osim_files/A01/A01_Slow_05.trc
DataRate	CameraRate	NumFrames	NumMarkers	Units                	OrigDataRate	OrigDataStartFrame	OrigNumFrames
120.00	120.00	7	36	mm	120.0	1037	1184
                Frame#	Time	Mobility_markerset:LPSIS			Mobility_markerset:LASIS			Mobility_markerset:LTH1			Mobility_markerset:LTH2			Mobility_markerset:LTH3			Mobility_markerset:LTH4			Mobility_markerset:LLFE			Mobility_markerset:LMFE			Mobility_markerset:LSH1			Mobility_markerset:LSH2			Mobility_markerset:LSH3			Mobility_markerset:LSH4			Mobility_markerset:LLMAL			Mobility_markerset:LMMAL			Mobility_markerset:LCAL			Mobility_markerset:LMTP5			Mobility_markerset:LTOE			Mobility_markerset:LMTP1			Mobility_markerset:RPSIS			Mobility_markerset:RASIS			Mobility_markerset:RTH1			Mobility_markerset:RTH2			Mobility_markerset:RTH3			Mobility_markerset:RTH4			Mobility_markerset:RLFE			Mobility_markerset:RMFE			Mobility_markerset:RSH1			Mobility_markerset:RSH2			Mobility_markerset:RSH3			Mobility_markerset:RSH4			Mobility_markerset:RLMAL			Mobility_markerset:RMMAL			Mobility_markerset:RCAL			Mobility_markerset:RMTP1			Mobility_markerset:RTOE			Mobility_markerset:RMTP5		
		X1	Y1	Z1	X2	Y2	Z2	X3	Y3	Z3	X4	Y4	Z4	X5	Y5	Z5	X6	Y6	Z6	X7	Y7	Z7	X8	Y8	Z8	X9	Y9	Z9	X10	Y10	Z10	X11	Y11	Z11	X12	Y12	Z12	X13	Y13	Z13	X14	Y14	Z14	X15	Y15	Z15	X16	Y16	Z16	X17	Y17	Z17	X18	Y18	Z18	X19	Y19	Z19	X20	Y20	Z20	X21	Y21	Z21	X22	Y22	Z22	X23	Y23	Z23	X24	Y24	Z24	X25	Y25	Z25	X26	Y26	Z26	X27	Y27	Z27	X28	Y28	Z28	X29	Y29	Z29	X30	Y30	Z30	X31	Y31	Z31	X32	Y32	Z32	X33	Y33	Z33	X34	Y34	Z34	X35	Y35	Z35	X36	Y36	Z36

1037	8.63333	0.00000	0.00000	0.00000	-3913.40210	1028.02759	730.12311	0.00000	0.00000	0.00000	-3850.19775	668.71136	733.20575	-3849.80835	730.75494	770.93231	-3866.11279	687.88470	779.63373	0.00000	0.00000	0.00000	-4046.78711	581.11237	800.34521	0.00000	0.00000	0.00000	-3926.64038	319.17487	808.02081	0.00000	0.00000	0.00000	0.00000	0.00000	0.00000	-4006.05347	99.30334	825.70245	-4092.06812	109.10446	819.18243	-4056.59424	65.20236	752.25446	-3986.05347	66.37472	970.11670	-4053.32861	103.64333	993.76172	-4089.24683	90.63031	972.18365	-4000.81885	1074.57922	446.00473	-4150.23047	992.77740	625.62018	-4127.84082	695.21710	425.79178	-4125.89551	651.93762	432.61038	-4160.35449	693.84595	479.91165	-4152.18359	650.35590	477.88303	-4107.04688	507.62073	467.32199	0.00000	0.00000	0.00000	-4035.26929	330.77509	361.43726	-4030.27856	284.45026	357.32089	-4077.07690	317.40121	403.66071	-4069.35059	274.11389	393.79733	-4001.99878	107.93297	365.25269	0.00000	0.00000	0.00000	0.00000	0.00000	0.00000	-4064.61035	46.96411	518.76044	-4120.96826	57.67556	506.16946	-4119.86816	41.02328	417.02341
1038	8.64167	0.00000	0.00000	0.00000	-3914.43408	1027.07202	733.78235	0.00000	0.00000	0.00000	-3851.50122	666.86249	734.09375	-3850.36499	728.63049	772.30975	-3866.99194	686.15002	781.03229	0.00000	0.00000	0.00000	-4047.30054	579.31952	804.03357	0.00000	0.00000	0.00000	-3927.06958	317.63699	811.58069	0.00000	0.00000	0.00000	0.00000	0.00000	0.00000	-4005.88843	97.68336	830.70270	-4091.96948	107.43779	825.56421	-4057.39014	63.25932	758.53784	-3986.99268	68.51839	975.80328	-4050.82764	103.33461	999.56421	-4086.62354	89.58274	978.59943	-4003.66479	1073.94055	450.42441	-4152.10010	992.30676	630.81982	-4129.85596	695.08881	429.45776	-4127.88623	651.91278	436.11041	-4162.05908	693.56921	483.78723	-4155.43604	651.23132	480.66748	-4108.45850	507.51520	469.90918	0.00000	0.00000	0.00000	-4036.20752	331.39151	362.83249	-4031.13574	285.08792	358.51736	-4077.94995	317.63510	405.03845	-4070.10303	274.43201	394.92670	-4002.26978	108.42529	365.34549	0.00000	0.00000	0.00000	0.00000	0.00000	0.00000	-4064.69214	47.03638	518.73804	-4121.03516	57.58887	506.15469	-4119.88672	40.98377	417.00220
1039	8.65000	0.00000	0.00000	0.00000	-3915.60669	1026.11926	737.76337	0.00000	0.00000	0.00000	-3852.83057	665.30768	734.95844	-3851.26538	726.69775	773.95007	-3867.51978	684.01746	782.41626	0.00000	0.00000	0.00000	-4048.02661	577.44409	807.29425	0.00000	0.00000	0.00000	-3927.20972	315.99228	814.74127	-3947.50708	389.23798	833.91840	0.00000	0.00000	0.00000	-4005.29419	96.31110	835.10193	-4091.55151	105.68446	831.18207	-4057.54932	62.33303	763.81073	-3984.30396	67.35468	980.06830	-4047.84424	101.95341	1004.55255	-4083.92139	88.10624	983.99408	-4005.60742	1073.36414	454.23199	-4153.85840	991.76862	636.02081	-4132.02295	695.10474	433.18021	-4129.84668	651.86029	439.70441	-4163.79541	693.32025	487.76450	-4157.08301	650.92126	484.47610	-4109.94189	507.41055	472.60617	0.00000	0.00000	0.00000	-4037.17163	331.97946	364.31613	-4031.82202	285.58130	359.69897	-4078.84766	317.90421	406.48874	-4070.88599	274.78412	396.07974	-4002.61230	108.99455	365.41464	0.00000	0.00000	0.00000	0.00000	0.00000	0.00000	-4064.77124	47.13518	518.71527	-4121.11182	57.48365	506.13031	-4119.91650	40.96572	416.97501
1040	8.65833	0.00000	0.00000	0.00000	-3916.53271	1025.18018	741.77777	0.00000	0.00000	0.00000	-3854.01831	663.49182	736.39026	-3852.35474	724.71393	775.97424	-3868.29517	681.97534	784.16168	0.00000	0.00000	0.00000	-4048.72388	575.56177	810.45160	0.00000	0.00000	0.00000	-3927.17041	314.38632	817.59912	0.00000	0.00000	0.00000	0.00000	0.00000	0.00000	-4004.55933	95.64948	838.51276	-4090.42065	104.16753	835.63690	-4057.37549	62.30382	767.65466	-3978.04761	62.69728	982.47656	-4044.43579	99.13319	1009.05377	-4081.09448	85.65340	988.69629	-4008.26782	1072.89136	458.95117	-4155.64404	991.22693	641.33984	-4134.11279	695.07104	436.93277	-4131.81494	651.84979	443.44400	-4165.54688	693.02966	491.84473	-4158.81152	650.73523	488.38965	-4111.35449	507.26355	475.41400	0.00000	0.00000	0.00000	-4038.11719	332.61310	365.83966	-4032.82275	286.41177	360.98471	-4079.78442	318.19873	407.96487	-4071.68604	275.17795	397.32474	-4003.01880	109.63385	365.51526	0.00000	0.00000	0.00000	0.00000	0.00000	0.00000	-4064.84595	47.23059	518.69299	-4121.20068	57.38021	506.11298	-4119.94141	40.92897	416.97574
1041	8.66667	0.00000	0.00000	0.00000	-3917.45386	1024.15332	745.91077	0.00000	0.00000	0.00000	-3855.77710	661.65771	738.42041	-3853.45435	722.74396	778.25635	-3869.24780	679.94073	786.24329	0.00000	0.00000	0.00000	-4049.41016	573.90070	813.54083	0.00000	0.00000	0.00000	-3927.03589	312.93582	819.88654	0.00000	0.00000	0.00000	0.00000	0.00000	0.00000	-4003.91772	95.08973	840.53821	-4089.36572	102.96461	838.83081	-4057.17017	62.14551	770.71643	-3975.56714	61.43356	984.26117	-4041.18506	97.21976	1012.49463	-4078.22070	83.46288	992.16034	-4010.89380	1072.40466	463.75165	-4157.37939	990.62970	646.76514	-4136.20947	695.08020	440.91458	-4133.76172	651.78369	447.30460	-4167.31152	692.81396	495.98294	-4160.54590	650.55188	492.38577	-4112.82080	507.12366	478.30887	0.00000	0.00000	0.00000	-4039.17969	333.35895	367.45575	-4033.70386	287.17847	362.24173	-4080.66211	318.53439	409.51114	-4072.47437	275.57376	398.58969	-4003.34937	110.20309	365.61465	-3966.52734	115.43958	444.83267	-3929.87524	84.40871	361.84781	-4064.92139	47.33516	518.65161	-4121.29492	57.26750	506.12634	-4119.95850	40.89856	416.97543
1042	8.67500	0.00000	0.00000	0.00000	-3918.55103	1023.13367	750.31110	0.00000	0.00000	0.00000	-3857.01343	660.04083	740.61389	-3854.77466	720.99585	780.81061	-3870.59839	678.08057	788.71332	0.00000	0.00000	0.00000	-4049.72607	572.65198	817.00403	-1367.44739	1334.66956	3122.50903	0.00000	0.00000	0.00000	0.00000	0.00000	0.00000	0.00000	0.00000	0.00000	-4003.99780	94.45114	840.85413	-4089.03125	101.96571	840.66864	-4058.44702	62.11144	771.47668	-3972.82349	59.76408	983.93768	-4037.93384	95.25874	1013.84216	-4075.24707	81.41190	993.68237	-4014.28149	1071.75745	469.40054	-4159.00586	989.95551	652.45142	-4138.23828	694.91815	445.02359	-4135.85010	651.81531	451.18686	-4169.10107	692.57977	500.20142	-4162.21826	650.27197	496.45956	-4114.38477	507.04337	481.28668	0.00000	0.00000	0.00000	-4040.18115	334.04764	369.15656	-4034.55054	287.90485	363.72421	-4081.63843	318.82745	411.13724	-4073.29810	275.98340	399.95490	-4003.80835	110.94631	365.74728	0.00000	0.00000	0.00000	0.00000	0.00000	0.00000	-4064.99023	47.39671	518.59027	-4121.42285	57.15007	506.12650	-4120.00586	40.86673	416.97229
1043	8.68333	0.00000	0.00000	0.00000	-3919.38745	1022.05463	754.73798	0.00000	0.00000	0.00000	-3858.45435	658.40582	743.12463	-3856.09204	719.12964	783.69824	-3871.72534	676.27899	791.31976	0.00000	0.00000	0.00000	-4049.86743	571.84521	820.46948	-1369.80786	1334.61865	3121.29224	0.00000	0.00000	0.00000	0.00000	0.00000	0.00000	0.00000	0.00000	0.00000	-4004.91895	94.18327	840.14111	-4089.67993	100.95759	841.48944	-4059.63257	61.33324	772.13098	-3969.81519	57.70133	983.03516	-4035.74170	93.27594	1013.40717	-4073.15015	79.72188	994.16760	-4016.80542	1071.23877	474.38058	-4160.66406	989.32764	658.04547	-4140.56055	695.02148	449.06415	-4137.77686	651.74237	455.23059	-4170.84473	692.25586	504.56235	-4163.95752	650.05963	500.64371	-4115.96533	506.93463	484.37054	0.00000	0.00000	0.00000	-4041.26489	334.79132	370.92432	-4035.63135	288.88428	365.07886	-4082.68066	319.21030	412.87323	-4074.16870	276.42865	401.36459	-4004.24243	111.70273	365.89771	0.00000	0.00000	0.00000	0.00000	0.00000	0.00000	-4065.08325	47.50917	518.56427	-4121.54248	57.04946	506.12036	-4120.05566	40.84517	416.96097
